STARTFONT 2.1
COMMENT ======================================================================
COMMENT  This is the Goha WP font hacked for Linux consoles by Daniel Yacob for
COMMENT  GohaClassic-16.psf.
COMMENT
COMMENT  Yitna Firdiywek of GohaTibeb Associates has placed the Goha WP package
COMMENT  and these fonts into the publice domain under the GNU General Public
COMMENT  License vs 2.0 :-  ybf2u@virginia.edu
COMMENT
COMMENT  Available at:  ftp://ftp.cs.indiana.edu/pub/fidel/fonts/linux/
COMMENT ======================================================================
FONT -Goha-ClassicFixed-Medium-R-Normal--16-150-100-100-M-160-Ethiopic-Unicode
SIZE 16 100 100
FONTBOUNDINGBOX 8 16 0 -2
STARTPROPERTIES 4
COPYRIGHT "GNU GPL 2.0"
DEFAULT_CHAR 318
FONT_ASCENT 6
FONT_DESCENT 2
ENDPROPERTIES
CHARS 353
STARTCHAR a2e2
ENCODING 0
SWIDTH 903 0
DWIDTH 8 0
BBX 8 16 0 -2
BITMAP
00
82
82
82
82
82
82
82
82
82
82
7c
00
00
00
00
ENDCHAR
STARTCHAR a2e3
ENCODING 1
SWIDTH 903 0
DWIDTH 8 0
BBX 8 16 0 -2
BITMAP
00
84
84
84
84
87
84
84
84
84
84
78
00
00
00
00
ENDCHAR
STARTCHAR a2e4
ENCODING 2
SWIDTH 903 0
DWIDTH 8 0
BBX 8 16 0 -2
BITMAP
00
88
88
88
88
78
08
08
08
08
08
0f
00
00
00
00
ENDCHAR
STARTCHAR a2e5
ENCODING 3
SWIDTH 903 0
DWIDTH 8 0
BBX 8 16 0 -2
BITMAP
00
84
84
84
84
7c
04
04
04
04
04
04
00
00
00
00
ENDCHAR
STARTCHAR a2e6
ENCODING 4
SWIDTH 903 0
DWIDTH 8 0
BBX 8 16 0 -2
BITMAP
00
88
88
88
88
78
08
08
08
0e
09
0e
00
00
00
00
ENDCHAR
STARTCHAR a2e7
ENCODING 5
SWIDTH 903 0
DWIDTH 8 0
BBX 8 16 0 -2
BITMAP
00
41
41
41
41
61
21
21
21
21
21
1e
00
00
00
00
ENDCHAR
STARTCHAR a2e8
ENCODING 6
SWIDTH 903 0
DWIDTH 8 0
BBX 8 16 0 -2
BITMAP
00
86
85
86
84
84
84
84
84
84
84
78
00
00
00
00
ENDCHAR
STARTCHAR a2e9
ENCODING 7
SWIDTH 903 0
DWIDTH 8 0
BBX 8 16 0 -2
BITMAP
00
08
10
20
50
88
84
84
84
84
84
84
00
00
00
00
ENDCHAR
STARTCHAR a2ea
ENCODING 8
SWIDTH 903 0
DWIDTH 8 0
BBX 8 16 0 -2
BITMAP
00
00
08
10
20
50
88
87
84
84
84
84
00
00
00
00
ENDCHAR
STARTCHAR a2eb
ENCODING 9
SWIDTH 903 0
DWIDTH 8 0
BBX 8 16 0 -2
BITMAP
00
08
10
20
50
88
84
84
84
84
84
87
00
00
00
00
ENDCHAR
STARTCHAR a2ec
ENCODING 10
SWIDTH 903 0
DWIDTH 8 0
BBX 8 16 0 -2
BITMAP
00
08
10
20
50
88
84
84
84
04
04
04
00
00
00
00
ENDCHAR
STARTCHAR a2ed
ENCODING 11
SWIDTH 903 0
DWIDTH 8 0
BBX 8 16 0 -2
BITMAP
00
08
10
20
50
88
84
84
84
86
85
86
00
00
00
00
ENDCHAR
STARTCHAR a2ee
ENCODING 12
SWIDTH 903 0
DWIDTH 8 0
BBX 8 16 0 -2
BITMAP
00
04
08
10
20
50
88
84
84
c4
a4
c4
00
00
00
00
ENDCHAR
STARTCHAR a2ef
ENCODING 13
SWIDTH 903 0
DWIDTH 8 0
BBX 8 16 0 -2
BITMAP
00
08
10
20
50
8a
85
86
84
84
84
84
00
00
00
00
ENDCHAR
STARTCHAR a2f0
ENCODING 14
SWIDTH 903 0
DWIDTH 8 0
BBX 8 16 0 -2
BITMAP
00
08
10
20
50
88
84
84
04
04
1f
11
00
00
00
00
ENDCHAR
STARTCHAR a2f1
ENCODING 15
SWIDTH 903 0
DWIDTH 8 0
BBX 8 16 0 -2
BITMAP
00
10
10
10
7c
92
92
92
92
92
92
92
00
00
00
00
ENDCHAR
STARTCHAR a2f2
ENCODING 16
SWIDTH 903 0
DWIDTH 8 0
BBX 8 16 0 -2
BITMAP
00
20
20
20
70
a8
a8
ae
a8
a8
a8
a8
00
00
00
00
ENDCHAR
STARTCHAR a2f3
ENCODING 17
SWIDTH 903 0
DWIDTH 8 0
BBX 8 16 0 -2
BITMAP
00
20
20
20
70
a8
a8
a8
a8
a8
a8
ae
00
00
00
00
ENDCHAR
STARTCHAR a2f4
ENCODING 18
SWIDTH 903 0
DWIDTH 8 0
BBX 8 16 0 -2
BITMAP
00
10
10
10
7c
92
92
92
92
02
02
02
00
00
00
00
ENDCHAR
STARTCHAR a2f5
ENCODING 19
SWIDTH 903 0
DWIDTH 8 0
BBX 8 16 0 -2
BITMAP
00
20
20
20
70
a8
a8
a8
a8
ac
aa
ac
00
00
00
00
ENDCHAR
STARTCHAR a2f6
ENCODING 20
SWIDTH 903 0
DWIDTH 8 0
BBX 8 16 0 -2
BITMAP
00
40
20
10
10
7c
92
92
92
92
92
92
00
00
00
00
ENDCHAR
STARTCHAR a2f7
ENCODING 21
SWIDTH 903 0
DWIDTH 8 0
BBX 8 16 0 -2
BITMAP
00
10
10
10
7c
92
92
92
92
80
80
80
00
00
00
00
ENDCHAR
STARTCHAR a2f8
ENCODING 22
SWIDTH 903 0
DWIDTH 8 0
BBX 8 16 0 -2
BITMAP
00
10
10
10
7c
92
92
92
02
04
1f
11
00
00
00
00
ENDCHAR
STARTCHAR a2f9
ENCODING 23
SWIDTH 903 0
DWIDTH 8 0
BBX 8 16 0 -2
BITMAP
00
00
00
7e
a5
a5
a5
a5
a5
a5
a5
66
00
00
00
00
ENDCHAR
STARTCHAR a2fa
ENCODING 24
SWIDTH 903 0
DWIDTH 8 0
BBX 8 16 0 -2
BITMAP
00
00
00
00
7c
aa
aa
ab
aa
aa
aa
6c
00
00
00
00
ENDCHAR
STARTCHAR a2fb
ENCODING 25
SWIDTH 903 0
DWIDTH 8 0
BBX 8 16 0 -2
BITMAP
00
7e
a5
a5
a5
43
01
02
02
04
04
07
00
00
00
00
ENDCHAR
STARTCHAR a2fc
ENCODING 26
SWIDTH 903 0
DWIDTH 8 0
BBX 8 16 0 -2
BITMAP
00
7e
a5
a5
a5
43
01
01
01
01
01
01
00
00
00
00
ENDCHAR
STARTCHAR a2fd
ENCODING 27
SWIDTH 903 0
DWIDTH 8 0
BBX 8 16 0 -2
BITMAP
00
7e
a5
a5
a5
43
02
04
04
06
05
06
00
00
00
00
ENDCHAR
STARTCHAR a2fe
ENCODING 28
SWIDTH 903 0
DWIDTH 8 0
BBX 8 16 0 -2
BITMAP
00
7e
a5
a5
a5
62
20
20
40
80
80
80
00
00
00
00
ENDCHAR
STARTCHAR a3a1
ENCODING 29
SWIDTH 903 0
DWIDTH 8 0
BBX 8 16 0 -2
BITMAP
00
7e
a5
a5
a5
62
20
20
20
20
20
20
00
00
00
00
ENDCHAR
STARTCHAR a3a2
ENCODING 30
SWIDTH 903 0
DWIDTH 8 0
BBX 8 16 0 -2
BITMAP
00
7e
a5
a5
a5
43
02
04
04
04
1f
11
00
00
00
00
ENDCHAR
STARTCHAR a3a3
ENCODING 31
SWIDTH 903 0
DWIDTH 8 0
BBX 8 16 0 -2
BITMAP
00
00
00
92
92
92
92
92
92
92
92
7c
00
00
00
00
ENDCHAR
STARTCHAR a3a4
ENCODING 32
SWIDTH 903 0
DWIDTH 8 0
BBX 8 16 0 -2
BITMAP
00
00
00
a8
a8
a8
a8
ae
a8
a8
a8
70
00
00
00
00
ENDCHAR
STARTCHAR a3a5
ENCODING 33
SWIDTH 903 0
DWIDTH 8 0
BBX 8 16 0 -2
BITMAP
00
00
92
92
92
92
7e
02
02
04
08
08
0e
00
00
00
ENDCHAR
STARTCHAR a3a6
ENCODING 34
SWIDTH 903 0
DWIDTH 8 0
BBX 8 16 0 -2
BITMAP
00
a8
a8
a8
a8
a8
78
08
08
08
08
08
00
00
00
00
ENDCHAR
STARTCHAR a3a7
ENCODING 35
SWIDTH 903 0
DWIDTH 8 0
BBX 8 16 0 -2
BITMAP
00
00
92
92
92
92
7e
02
02
04
0c
0a
0c
00
00
00
ENDCHAR
STARTCHAR a3a8
ENCODING 36
SWIDTH 903 0
DWIDTH 8 0
BBX 8 16 0 -2
BITMAP
00
2a
2a
2a
2a
2a
3c
60
40
40
40
40
00
00
00
00
ENDCHAR
STARTCHAR a3a9
ENCODING 37
SWIDTH 903 0
DWIDTH 8 0
BBX 8 16 0 -2
BITMAP
00
92
92
92
92
7c
10
20
20
40
40
40
00
00
00
00
ENDCHAR
STARTCHAR a3aa
ENCODING 38
SWIDTH 903 0
DWIDTH 8 0
BBX 8 16 0 -2
BITMAP
00
a8
a8
a8
a8
a8
78
08
08
08
08
3e
22
00
00
00
ENDCHAR
STARTCHAR a3ab
ENCODING 39
SWIDTH 903 0
DWIDTH 8 0
BBX 8 16 0 -2
BITMAP
00
20
20
20
20
20
20
40
80
80
80
7e
00
00
00
00
ENDCHAR
STARTCHAR a3ac
ENCODING 40
SWIDTH 903 0
DWIDTH 8 0
BBX 8 16 0 -2
BITMAP
00
20
20
20
20
40
80
80
7e
10
10
10
00
00
00
00
ENDCHAR
STARTCHAR a3ad
ENCODING 41
SWIDTH 903 0
DWIDTH 8 0
BBX 8 16 0 -2
BITMAP
00
20
20
20
20
40
40
80
88
84
84
78
00
00
00
00
ENDCHAR
STARTCHAR a3ae
ENCODING 42
SWIDTH 903 0
DWIDTH 8 0
BBX 8 16 0 -2
BITMAP
00
20
20
20
20
20
20
40
80
98
a4
63
00
00
00
00
ENDCHAR
STARTCHAR a3af
ENCODING 43
SWIDTH 903 0
DWIDTH 8 0
BBX 8 16 0 -2
BITMAP
00
20
20
20
20
40
80
80
80
7c
0a
04
00
00
00
00
ENDCHAR
STARTCHAR a3b0
ENCODING 44
SWIDTH 903 0
DWIDTH 8 0
BBX 8 16 0 -2
BITMAP
00
78
80
80
80
80
80
80
80
80
80
7e
00
00
00
00
ENDCHAR
STARTCHAR a3b1
ENCODING 45
SWIDTH 903 0
DWIDTH 8 0
BBX 8 16 0 -2
BITMAP
00
7c
8a
84
80
80
80
80
80
80
80
7e
00
00
00
00
ENDCHAR
STARTCHAR a3b2
ENCODING 46
SWIDTH 903 0
DWIDTH 8 0
BBX 8 16 0 -2
BITMAP
00
44
7c
10
10
10
10
20
40
40
40
3e
00
00
00
00
ENDCHAR
STARTCHAR a3b3
ENCODING 47
SWIDTH 903 0
DWIDTH 8 0
BBX 8 16 0 -2
BITMAP
00
10
10
10
7c
82
82
82
82
82
82
82
00
00
00
00
ENDCHAR
STARTCHAR a3b4
ENCODING 48
SWIDTH 903 0
DWIDTH 8 0
BBX 8 16 0 -2
BITMAP
00
20
20
70
88
88
88
8f
88
88
88
88
00
00
00
00
ENDCHAR
STARTCHAR a3b5
ENCODING 49
SWIDTH 903 0
DWIDTH 8 0
BBX 8 16 0 -2
BITMAP
00
20
20
70
88
88
88
88
88
88
88
8f
00
00
00
00
ENDCHAR
STARTCHAR a3b6
ENCODING 50
SWIDTH 903 0
DWIDTH 8 0
BBX 8 16 0 -2
BITMAP
00
10
10
7c
82
82
82
82
02
02
02
02
00
00
00
00
ENDCHAR
STARTCHAR a3b7
ENCODING 51
SWIDTH 903 0
DWIDTH 8 0
BBX 8 16 0 -2
BITMAP
00
20
20
20
70
88
88
88
88
8e
89
8e
00
00
00
00
ENDCHAR
STARTCHAR a3b8
ENCODING 52
SWIDTH 903 0
DWIDTH 8 0
BBX 8 16 0 -2
BITMAP
00
40
20
10
7c
82
82
82
82
82
82
82
00
00
00
00
ENDCHAR
STARTCHAR a3b9
ENCODING 53
SWIDTH 903 0
DWIDTH 8 0
BBX 8 16 0 -2
BITMAP
00
10
10
7c
82
82
82
82
82
80
80
80
00
00
00
00
ENDCHAR
STARTCHAR a3ba
ENCODING 54
SWIDTH 903 0
DWIDTH 8 0
BBX 8 16 0 -2
BITMAP
00
10
10
38
44
44
44
44
04
04
1f
11
00
00
00
00
ENDCHAR
STARTCHAR a3bb
ENCODING 55
SWIDTH 903 0
DWIDTH 8 0
BBX 8 16 0 -2
BITMAP
00
fe
10
10
10
7c
82
82
82
82
82
82
00
00
00
00
ENDCHAR
STARTCHAR a3bc
ENCODING 56
SWIDTH 903 0
DWIDTH 8 0
BBX 8 16 0 -2
BITMAP
00
f8
20
20
70
88
88
8f
88
88
88
88
00
00
00
00
ENDCHAR
STARTCHAR a3bd
ENCODING 57
SWIDTH 903 0
DWIDTH 8 0
BBX 8 16 0 -2
BITMAP
00
f8
20
20
70
88
88
88
88
88
88
8f
00
00
00
00
ENDCHAR
STARTCHAR a3be
ENCODING 58
SWIDTH 903 0
DWIDTH 8 0
BBX 8 16 0 -2
BITMAP
00
fe
10
10
7c
82
82
82
82
02
02
02
00
00
00
00
ENDCHAR
STARTCHAR a3bf
ENCODING 59
SWIDTH 903 0
DWIDTH 8 0
BBX 8 16 0 -2
BITMAP
00
f8
20
20
70
88
88
88
88
8e
89
8e
00
00
00
00
ENDCHAR
STARTCHAR a3c0
ENCODING 60
SWIDTH 903 0
DWIDTH 8 0
BBX 8 16 0 -2
BITMAP
00
fc
20
10
08
3e
41
41
41
41
41
41
00
00
00
00
ENDCHAR
STARTCHAR a3c1
ENCODING 61
SWIDTH 903 0
DWIDTH 8 0
BBX 8 16 0 -2
BITMAP
00
fe
10
10
7c
82
82
82
82
80
80
80
00
00
00
00
ENDCHAR
STARTCHAR a3c2
ENCODING 62
SWIDTH 903 0
DWIDTH 8 0
BBX 8 16 0 -2
BITMAP
00
7c
10
10
38
44
44
44
44
04
1f
11
00
00
00
00
ENDCHAR
STARTCHAR a3c3
ENCODING 63
SWIDTH 903 0
DWIDTH 8 0
BBX 8 16 0 -2
BITMAP
00
10
10
10
7c
92
92
7c
10
10
10
10
00
00
00
00
ENDCHAR
STARTCHAR a3c4
ENCODING 64
SWIDTH 903 0
DWIDTH 8 0
BBX 8 16 0 -2
BITMAP
00
10
10
10
7c
92
92
7c
10
1e
10
10
00
00
00
00
ENDCHAR
STARTCHAR a3c5
ENCODING 65
SWIDTH 903 0
DWIDTH 8 0
BBX 8 16 0 -2
BITMAP
00
10
10
10
7c
92
92
7c
10
10
10
1e
00
00
00
00
ENDCHAR
STARTCHAR a3c6
ENCODING 66
SWIDTH 903 0
DWIDTH 8 0
BBX 8 16 0 -2
BITMAP
00
10
10
7c
92
92
7c
10
10
20
40
80
00
00
00
00
ENDCHAR
STARTCHAR a3c7
ENCODING 67
SWIDTH 903 0
DWIDTH 8 0
BBX 8 16 0 -2
BITMAP
00
10
10
10
7c
92
92
7c
10
1c
12
1c
00
00
00
00
ENDCHAR
STARTCHAR a3c8
ENCODING 68
SWIDTH 903 0
DWIDTH 8 0
BBX 8 16 0 -2
BITMAP
00
40
40
30
10
7c
92
92
7c
10
10
10
00
00
00
00
ENDCHAR
STARTCHAR a3c9
ENCODING 69
SWIDTH 903 0
DWIDTH 8 0
BBX 8 16 0 -2
BITMAP
00
10
28
10
10
7c
92
92
7c
10
10
10
00
00
00
00
ENDCHAR
STARTCHAR a3ca
ENCODING 70
SWIDTH 903 0
DWIDTH 8 0
BBX 8 16 0 -2
BITMAP
00
10
10
10
7c
92
92
7c
14
1a
14
10
00
00
00
00
ENDCHAR
STARTCHAR a3cb
ENCODING 71
SWIDTH 903 0
DWIDTH 8 0
BBX 8 16 0 -2
BITMAP
00
10
11
11
7d
93
95
78
10
10
10
10
00
00
00
00
ENDCHAR
STARTCHAR a3cc
ENCODING 72
SWIDTH 903 0
DWIDTH 8 0
BBX 8 16 0 -2
BITMAP
00
10
10
7c
92
92
7c
10
10
10
7c
44
00
00
00
00
ENDCHAR
STARTCHAR a3cd
ENCODING 73
SWIDTH 903 0
DWIDTH 8 0
BBX 8 16 0 -2
BITMAP
00
10
10
10
7c
92
92
7c
10
18
14
78
00
00
00
00
ENDCHAR
STARTCHAR a3ce
ENCODING 74
SWIDTH 903 0
DWIDTH 8 0
BBX 8 16 0 -2
BITMAP
00
10
10
10
78
95
93
7d
11
11
10
10
00
00
00
00
ENDCHAR
STARTCHAR a3cf
ENCODING 75
SWIDTH 903 0
DWIDTH 8 0
BBX 8 16 0 -2
BITMAP
00
7c
10
10
7c
92
92
7c
10
10
10
10
00
00
00
00
ENDCHAR
STARTCHAR a3d0
ENCODING 76
SWIDTH 903 0
DWIDTH 8 0
BBX 8 16 0 -2
BITMAP
00
7c
10
10
7c
92
92
7c
10
1e
10
10
00
00
00
00
ENDCHAR
STARTCHAR a3d1
ENCODING 77
SWIDTH 903 0
DWIDTH 8 0
BBX 8 16 0 -2
BITMAP
00
7c
10
10
7c
92
92
7c
10
10
10
1e
00
00
00
00
ENDCHAR
STARTCHAR a3d2
ENCODING 78
SWIDTH 903 0
DWIDTH 8 0
BBX 8 16 0 -2
BITMAP
00
fe
10
10
7c
92
92
7c
10
10
20
40
00
00
00
00
ENDCHAR
STARTCHAR a3d3
ENCODING 79
SWIDTH 903 0
DWIDTH 8 0
BBX 8 16 0 -2
BITMAP
00
fe
10
10
7c
92
92
7c
10
1c
12
1c
00
00
00
00
ENDCHAR
STARTCHAR a3d4
ENCODING 80
SWIDTH 903 0
DWIDTH 8 0
BBX 8 16 0 -2
BITMAP
00
f8
20
18
08
3e
49
49
3e
08
08
08
00
00
00
00
ENDCHAR
STARTCHAR a3d5
ENCODING 81
SWIDTH 903 0
DWIDTH 8 0
BBX 8 16 0 -2
BITMAP
00
fe
10
28
10
7c
92
92
7c
10
10
10
00
00
00
00
ENDCHAR
STARTCHAR a3d6
ENCODING 82
SWIDTH 903 0
DWIDTH 8 0
BBX 8 16 0 -2
BITMAP
00
7c
10
10
7c
92
92
7c
14
1a
14
10
00
00
00
00
ENDCHAR
STARTCHAR a3d7
ENCODING 83
SWIDTH 903 0
DWIDTH 8 0
BBX 8 16 0 -2
BITMAP
00
7c
11
11
7d
93
95
78
10
10
10
10
00
00
00
00
ENDCHAR
STARTCHAR a3d8
ENCODING 84
SWIDTH 903 0
DWIDTH 8 0
BBX 8 16 0 -2
BITMAP
00
7c
10
7c
92
92
7c
10
10
10
7c
44
00
00
00
00
ENDCHAR
STARTCHAR a3d9
ENCODING 85
SWIDTH 903 0
DWIDTH 8 0
BBX 8 16 0 -2
BITMAP
00
7c
10
10
7c
92
92
7c
10
18
14
78
00
00
00
00
ENDCHAR
STARTCHAR a3da
ENCODING 86
SWIDTH 903 0
DWIDTH 8 0
BBX 8 16 0 -2
BITMAP
00
7c
10
10
78
95
93
7d
11
11
10
10
00
00
00
00
ENDCHAR
STARTCHAR a3db
ENCODING 87
SWIDTH 903 0
DWIDTH 8 0
BBX 8 16 0 -2
BITMAP
00
7c
82
82
82
82
82
82
82
82
82
82
00
00
00
00
ENDCHAR
STARTCHAR a3dc
ENCODING 88
SWIDTH 903 0
DWIDTH 8 0
BBX 8 16 0 -2
BITMAP
00
78
84
84
84
84
84
87
84
84
84
84
00
00
00
00
ENDCHAR
STARTCHAR a3dd
ENCODING 89
SWIDTH 903 0
DWIDTH 8 0
BBX 8 16 0 -2
BITMAP
00
78
84
84
84
84
84
84
84
84
84
87
00
00
00
00
ENDCHAR
STARTCHAR a3de
ENCODING 90
SWIDTH 903 0
DWIDTH 8 0
BBX 8 16 0 -2
BITMAP
00
7c
82
82
82
82
82
82
02
02
02
02
00
00
00
00
ENDCHAR
STARTCHAR a3df
ENCODING 91
SWIDTH 903 0
DWIDTH 8 0
BBX 8 16 0 -2
BITMAP
00
78
84
84
84
84
84
84
84
86
85
86
00
00
00
00
ENDCHAR
STARTCHAR a3e0
ENCODING 92
SWIDTH 903 0
DWIDTH 8 0
BBX 8 16 0 -2
BITMAP
00
1e
21
21
21
21
e1
21
21
21
21
21
00
00
00
00
ENDCHAR
STARTCHAR a3e1
ENCODING 93
SWIDTH 903 0
DWIDTH 8 0
BBX 8 16 0 -2
BITMAP
00
7c
82
82
82
82
82
82
80
80
80
80
00
00
00
00
ENDCHAR
STARTCHAR a3e2
ENCODING 94
SWIDTH 903 0
DWIDTH 8 0
BBX 8 16 0 -2
BITMAP
00
78
84
84
84
84
84
84
04
04
1f
11
00
00
00
00
ENDCHAR
STARTCHAR a3e3
ENCODING 95
SWIDTH 903 0
DWIDTH 8 0
BBX 8 16 0 -2
BITMAP
00
fe
00
00
7c
82
82
82
82
82
82
82
00
00
00
00
ENDCHAR
STARTCHAR a3e4
ENCODING 96
SWIDTH 903 0
DWIDTH 8 0
BBX 8 16 0 -2
BITMAP
00
fc
00
00
78
84
84
84
87
84
84
84
00
00
00
00
ENDCHAR
STARTCHAR a3e5
ENCODING 97
SWIDTH 903 0
DWIDTH 8 0
BBX 8 16 0 -2
BITMAP
00
fc
00
00
78
84
84
84
84
84
84
87
00
00
00
00
ENDCHAR
STARTCHAR a3e6
ENCODING 98
SWIDTH 903 0
DWIDTH 8 0
BBX 8 16 0 -2
BITMAP
00
fe
00
00
7c
82
82
82
82
02
02
02
00
00
00
00
ENDCHAR
STARTCHAR a3e7
ENCODING 99
SWIDTH 903 0
DWIDTH 8 0
BBX 8 16 0 -2
BITMAP
00
f8
00
00
70
88
88
88
88
8e
89
8e
00
00
00
00
ENDCHAR
STARTCHAR a3e8
ENCODING 100
SWIDTH 903 0
DWIDTH 8 0
BBX 8 16 0 -2
BITMAP
00
3f
00
00
1e
21
21
e1
21
21
21
21
00
00
00
00
ENDCHAR
STARTCHAR a3e9
ENCODING 101
SWIDTH 903 0
DWIDTH 8 0
BBX 8 16 0 -2
BITMAP
00
fe
00
00
7c
82
82
82
82
80
80
80
00
00
00
00
ENDCHAR
STARTCHAR a3ea
ENCODING 102
SWIDTH 903 0
DWIDTH 8 0
BBX 8 16 0 -2
BITMAP
00
7c
00
38
44
44
44
04
04
04
3e
22
00
00
00
00
ENDCHAR
STARTCHAR a3eb
ENCODING 103
SWIDTH 903 0
DWIDTH 8 0
BBX 8 16 0 -2
BITMAP
00
10
10
10
10
fe
10
10
10
10
10
10
00
00
00
00
ENDCHAR
STARTCHAR a3ec
ENCODING 104
SWIDTH 903 0
DWIDTH 8 0
BBX 8 16 0 -2
BITMAP
00
10
10
10
fe
10
10
10
1e
10
10
10
00
00
00
00
ENDCHAR
STARTCHAR a3ed
ENCODING 105
SWIDTH 903 0
DWIDTH 8 0
BBX 8 16 0 -2
BITMAP
00
10
10
10
fe
10
10
10
10
10
10
1e
00
00
00
00
ENDCHAR
STARTCHAR a3ee
ENCODING 106
SWIDTH 903 0
DWIDTH 8 0
BBX 8 16 0 -2
BITMAP
00
10
10
10
fe
10
10
10
10
20
40
80
00
00
00
00
ENDCHAR
STARTCHAR a3ef
ENCODING 107
SWIDTH 903 0
DWIDTH 8 0
BBX 8 16 0 -2
BITMAP
00
10
10
10
fe
10
10
10
10
1c
12
1c
00
00
00
00
ENDCHAR
STARTCHAR a3f0
ENCODING 108
SWIDTH 903 0
DWIDTH 8 0
BBX 8 16 0 -2
BITMAP
00
40
40
30
10
10
fe
10
10
10
10
10
00
00
00
00
ENDCHAR
STARTCHAR a3f1
ENCODING 109
SWIDTH 903 0
DWIDTH 8 0
BBX 8 16 0 -2
BITMAP
00
10
28
10
10
10
fe
10
10
10
10
10
00
00
00
00
ENDCHAR
STARTCHAR a3f2
ENCODING 110
SWIDTH 903 0
DWIDTH 8 0
BBX 8 16 0 -2
BITMAP
00
10
10
10
fe
10
10
10
10
10
7c
44
00
00
00
00
ENDCHAR
STARTCHAR a3f3
ENCODING 111
SWIDTH 903 0
DWIDTH 8 0
BBX 8 16 0 -2
BITMAP
00
fe
10
10
10
fe
10
10
10
10
10
10
00
00
00
00
ENDCHAR
STARTCHAR a3f4
ENCODING 112
SWIDTH 903 0
DWIDTH 8 0
BBX 8 16 0 -2
BITMAP
00
fe
10
10
fe
10
10
10
1e
10
10
10
00
00
00
00
ENDCHAR
STARTCHAR a3f5
ENCODING 113
SWIDTH 903 0
DWIDTH 8 0
BBX 8 16 0 -2
BITMAP
00
fe
10
10
fe
10
10
10
10
10
10
1e
00
00
00
00
ENDCHAR
STARTCHAR a3f6
ENCODING 114
SWIDTH 903 0
DWIDTH 8 0
BBX 8 16 0 -2
BITMAP
00
fe
10
10
fe
10
10
10
10
20
40
80
00
00
00
00
ENDCHAR
STARTCHAR a3f7
ENCODING 115
SWIDTH 903 0
DWIDTH 8 0
BBX 8 16 0 -2
BITMAP
00
fe
10
10
10
fe
10
10
10
1c
12
1c
00
00
00
00
ENDCHAR
STARTCHAR a3f8
ENCODING 116
SWIDTH 903 0
DWIDTH 8 0
BBX 8 16 0 -2
BITMAP
00
fe
10
08
7f
08
08
08
08
08
08
08
00
00
00
00
ENDCHAR
STARTCHAR a3f9
ENCODING 117
SWIDTH 903 0
DWIDTH 8 0
BBX 8 16 0 -2
BITMAP
00
fe
10
28
28
10
fe
10
10
10
10
10
00
00
00
00
ENDCHAR
STARTCHAR a3fa
ENCODING 118
SWIDTH 903 0
DWIDTH 8 0
BBX 8 16 0 -2
BITMAP
00
fe
10
10
fe
10
10
10
10
10
7c
44
00
00
00
00
ENDCHAR
STARTCHAR a3fb
ENCODING 119
SWIDTH 903 0
DWIDTH 8 0
BBX 8 16 0 -2
BITMAP
00
10
f0
10
0c
04
04
04
04
04
04
04
00
00
00
00
ENDCHAR
STARTCHAR a3fc
ENCODING 120
SWIDTH 903 0
DWIDTH 8 0
BBX 8 16 0 -2
BITMAP
00
10
f0
10
0c
04
04
07
04
04
04
04
00
00
00
00
ENDCHAR
STARTCHAR a3fd
ENCODING 121
SWIDTH 903 0
DWIDTH 8 0
BBX 8 16 0 -2
BITMAP
00
10
f0
10
0c
04
04
04
04
04
04
07
00
00
00
00
ENDCHAR
STARTCHAR a3fe
ENCODING 122
SWIDTH 903 0
DWIDTH 8 0
BBX 8 16 0 -2
BITMAP
00
10
f0
10
0c
04
04
04
04
04
08
f0
00
00
00
00
ENDCHAR
STARTCHAR a4a1
ENCODING 123
SWIDTH 903 0
DWIDTH 8 0
BBX 8 16 0 -2
BITMAP
00
10
f0
10
0c
04
04
04
04
06
05
06
00
00
00
00
ENDCHAR
STARTCHAR a4a2
ENCODING 124
SWIDTH 903 0
DWIDTH 8 0
BBX 8 16 0 -2
BITMAP
00
10
70
90
8c
04
04
04
04
04
04
04
00
00
00
00
ENDCHAR
STARTCHAR a4a3
ENCODING 125
SWIDTH 903 0
DWIDTH 8 0
BBX 8 16 0 -2
BITMAP
00
00
0e
15
73
90
8c
04
04
04
04
04
00
00
00
00
ENDCHAR
STARTCHAR a4a4
ENCODING 126
SWIDTH 903 0
DWIDTH 8 0
BBX 8 16 0 -2
BITMAP
00
20
e0
22
1d
0a
08
08
08
08
08
08
00
00
00
00
ENDCHAR
STARTCHAR a4a5
ENCODING 127
SWIDTH 903 0
DWIDTH 8 0
BBX 8 16 0 -2
BITMAP
00
20
e0
20
18
0a
0a
0c
0a
0a
08
08
00
00
00
00
ENDCHAR
STARTCHAR a4a6
ENCODING 128
SWIDTH 903 0
DWIDTH 8 0
BBX 8 16 0 -2
BITMAP
00
10
f0
90
18
08
08
08
08
08
3e
22
00
00
00
00
ENDCHAR
STARTCHAR a4a7
ENCODING 129
SWIDTH 903 0
DWIDTH 8 0
BBX 8 16 0 -2
BITMAP
00
10
f0
10
0c
04
04
04
06
05
3e
40
00
00
00
00
ENDCHAR
STARTCHAR a4a8
ENCODING 130
SWIDTH 903 0
DWIDTH 8 0
BBX 8 16 0 -2
BITMAP
00
20
e2
22
1c
0a
0a
08
08
08
08
08
00
00
00
00
ENDCHAR
STARTCHAR a4a9
ENCODING 131
SWIDTH 903 0
DWIDTH 8 0
BBX 8 16 0 -2
BITMAP
00
40
40
40
78
08
08
08
08
08
08
08
00
00
00
00
ENDCHAR
STARTCHAR a4aa
ENCODING 132
SWIDTH 903 0
DWIDTH 8 0
BBX 8 16 0 -2
BITMAP
00
40
40
40
78
08
08
0f
08
08
08
08
00
00
00
00
ENDCHAR
STARTCHAR a4ab
ENCODING 133
SWIDTH 903 0
DWIDTH 8 0
BBX 8 16 0 -2
BITMAP
00
40
40
40
78
08
08
08
08
08
08
0f
00
00
00
00
ENDCHAR
STARTCHAR a4ac
ENCODING 134
SWIDTH 903 0
DWIDTH 8 0
BBX 8 16 0 -2
BITMAP
00
78
84
84
80
70
10
10
10
10
10
10
00
00
00
00
ENDCHAR
STARTCHAR a4ad
ENCODING 135
SWIDTH 903 0
DWIDTH 8 0
BBX 8 16 0 -2
BITMAP
00
40
40
40
78
08
08
08
08
0e
09
0e
00
00
00
00
ENDCHAR
STARTCHAR a4ae
ENCODING 136
SWIDTH 903 0
DWIDTH 8 0
BBX 8 16 0 -2
BITMAP
00
00
f0
10
10
18
08
08
08
08
08
08
00
00
00
00
ENDCHAR
STARTCHAR a4af
ENCODING 137
SWIDTH 903 0
DWIDTH 8 0
BBX 8 16 0 -2
BITMAP
00
78
94
8c
80
70
10
10
10
10
10
10
00
00
00
00
ENDCHAR
STARTCHAR a4b0
ENCODING 138
SWIDTH 903 0
DWIDTH 8 0
BBX 8 16 0 -2
BITMAP
00
78
84
84
80
70
10
10
10
10
7c
44
00
00
00
00
ENDCHAR
STARTCHAR a4b1
ENCODING 139
SWIDTH 903 0
DWIDTH 8 0
BBX 8 16 0 -2
BITMAP
00
82
fe
10
10
10
1c
04
04
04
04
04
00
00
00
00
ENDCHAR
STARTCHAR a4b2
ENCODING 140
SWIDTH 903 0
DWIDTH 8 0
BBX 8 16 0 -2
BITMAP
00
88
f8
20
20
38
08
0f
08
08
08
08
00
00
00
00
ENDCHAR
STARTCHAR a4b3
ENCODING 141
SWIDTH 903 0
DWIDTH 8 0
BBX 8 16 0 -2
BITMAP
00
88
f8
20
20
38
08
08
08
08
08
0f
00
00
00
00
ENDCHAR
STARTCHAR a4b4
ENCODING 142
SWIDTH 903 0
DWIDTH 8 0
BBX 8 16 0 -2
BITMAP
00
fc
30
78
84
84
80
70
10
10
10
10
00
00
00
00
ENDCHAR
STARTCHAR a4b5
ENCODING 143
SWIDTH 903 0
DWIDTH 8 0
BBX 8 16 0 -2
BITMAP
00
88
f8
20
20
38
08
08
08
0e
09
0e
00
00
00
00
ENDCHAR
STARTCHAR a4b6
ENCODING 144
SWIDTH 903 0
DWIDTH 8 0
BBX 8 16 0 -2
BITMAP
00
fc
30
78
48
08
0c
04
04
04
04
04
00
00
00
00
ENDCHAR
STARTCHAR a4b7
ENCODING 145
SWIDTH 903 0
DWIDTH 8 0
BBX 8 16 0 -2
BITMAP
fc
30
78
94
8c
80
70
10
10
10
10
10
00
00
00
00
ENDCHAR
STARTCHAR a4b8
ENCODING 146
SWIDTH 903 0
DWIDTH 8 0
BBX 8 16 0 -2
BITMAP
fc
30
78
84
84
80
70
10
10
10
7c
44
00
00
00
00
ENDCHAR
STARTCHAR a4b9
ENCODING 147
SWIDTH 903 0
DWIDTH 8 0
BBX 8 16 0 -2
BITMAP
00
80
80
60
20
50
88
84
84
84
84
84
00
00
00
00
ENDCHAR
STARTCHAR a4ba
ENCODING 148
SWIDTH 903 0
DWIDTH 8 0
BBX 8 16 0 -2
BITMAP
00
80
80
60
20
50
88
87
84
84
84
84
00
00
00
00
ENDCHAR
STARTCHAR a4bb
ENCODING 149
SWIDTH 903 0
DWIDTH 8 0
BBX 8 16 0 -2
BITMAP
00
80
80
60
20
50
88
84
84
84
84
87
00
00
00
00
ENDCHAR
STARTCHAR a4bc
ENCODING 150
SWIDTH 903 0
DWIDTH 8 0
BBX 8 16 0 -2
BITMAP
00
80
80
60
20
50
88
84
84
04
04
04
00
00
00
00
ENDCHAR
STARTCHAR a4bd
ENCODING 151
SWIDTH 903 0
DWIDTH 8 0
BBX 8 16 0 -2
BITMAP
00
80
80
60
20
50
88
84
84
86
85
86
00
00
00
00
ENDCHAR
STARTCHAR a4be
ENCODING 152
SWIDTH 903 0
DWIDTH 8 0
BBX 8 16 0 -2
BITMAP
00
e0
f0
38
10
30
48
44
42
42
42
42
00
00
00
00
ENDCHAR
STARTCHAR a4bf
ENCODING 153
SWIDTH 903 0
DWIDTH 8 0
BBX 8 16 0 -2
BITMAP
00
80
80
60
20
50
88
84
84
80
80
80
00
00
00
00
ENDCHAR
STARTCHAR a4c0
ENCODING 154
SWIDTH 903 0
DWIDTH 8 0
BBX 8 16 0 -2
BITMAP
00
88
f8
20
20
18
08
14
22
21
21
21
00
00
00
00
ENDCHAR
STARTCHAR a4c1
ENCODING 155
SWIDTH 903 0
DWIDTH 8 0
BBX 8 16 0 -2
BITMAP
00
80
80
bc
42
42
42
42
42
42
42
42
00
00
00
00
ENDCHAR
STARTCHAR a4c2
ENCODING 156
SWIDTH 903 0
DWIDTH 8 0
BBX 8 16 0 -2
BITMAP
00
80
80
b8
44
44
44
47
44
44
44
44
00
00
00
00
ENDCHAR
STARTCHAR a4c3
ENCODING 157
SWIDTH 903 0
DWIDTH 8 0
BBX 8 16 0 -2
BITMAP
00
80
80
b8
44
44
44
44
44
44
44
47
00
00
00
00
ENDCHAR
STARTCHAR a4c4
ENCODING 158
SWIDTH 903 0
DWIDTH 8 0
BBX 8 16 0 -2
BITMAP
00
80
80
bc
42
42
42
42
42
02
02
02
00
00
00
00
ENDCHAR
STARTCHAR a4c5
ENCODING 159
SWIDTH 903 0
DWIDTH 8 0
BBX 8 16 0 -2
BITMAP
00
80
80
b8
44
44
44
44
44
46
45
46
00
00
00
00
ENDCHAR
STARTCHAR a4c6
ENCODING 160
SWIDTH 903 0
DWIDTH 8 0
BBX 8 16 0 -2
BITMAP
00
80
80
bc
42
42
42
62
22
22
22
22
00
00
00
00
ENDCHAR
STARTCHAR a4c7
ENCODING 161
SWIDTH 903 0
DWIDTH 8 0
BBX 8 16 0 -2
BITMAP
00
80
80
bc
42
42
42
42
42
40
40
40
00
00
00
00
ENDCHAR
STARTCHAR a4c8
ENCODING 162
SWIDTH 903 0
DWIDTH 8 0
BBX 8 16 0 -2
BITMAP
00
80
82
bd
46
44
44
44
44
44
44
44
00
00
00
00
ENDCHAR
STARTCHAR a4c9
ENCODING 163
SWIDTH 903 0
DWIDTH 8 0
BBX 8 16 0 -2
BITMAP
00
80
80
bc
44
44
45
45
46
45
45
44
00
00
00
00
ENDCHAR
STARTCHAR a4ca
ENCODING 164
SWIDTH 903 0
DWIDTH 8 0
BBX 8 16 0 -2
BITMAP
00
80
80
b8
44
44
44
44
04
04
1f
11
00
00
00
00
ENDCHAR
STARTCHAR a4cb
ENCODING 165
SWIDTH 903 0
DWIDTH 8 0
BBX 8 16 0 -2
BITMAP
00
80
80
b8
44
44
44
04
06
05
06
18
00
00
00
00
ENDCHAR
STARTCHAR a4cc
ENCODING 166
SWIDTH 903 0
DWIDTH 8 0
BBX 8 16 0 -2
BITMAP
00
80
81
bd
46
45
45
44
44
44
44
44
00
00
00
00
ENDCHAR
STARTCHAR a4cd
ENCODING 167
SWIDTH 903 0
DWIDTH 8 0
BBX 8 16 0 -2
BITMAP
10
30
e0
9e
21
21
21
21
21
21
21
21
00
00
00
00
ENDCHAR
STARTCHAR a4ce
ENCODING 168
SWIDTH 903 0
DWIDTH 8 0
BBX 8 16 0 -2
BITMAP
10
30
e0
98
24
24
24
27
24
24
24
24
00
00
00
00
ENDCHAR
STARTCHAR a4cf
ENCODING 169
SWIDTH 903 0
DWIDTH 8 0
BBX 8 16 0 -2
BITMAP
10
30
e0
98
24
24
24
24
24
24
24
27
00
00
00
00
ENDCHAR
STARTCHAR a4d0
ENCODING 170
SWIDTH 903 0
DWIDTH 8 0
BBX 8 16 0 -2
BITMAP
10
30
e0
9c
22
22
22
22
02
02
02
02
00
00
00
00
ENDCHAR
STARTCHAR a4d1
ENCODING 171
SWIDTH 903 0
DWIDTH 8 0
BBX 8 16 0 -2
BITMAP
10
30
e0
98
24
24
24
24
24
26
25
26
00
00
00
00
ENDCHAR
STARTCHAR a4d2
ENCODING 172
SWIDTH 903 0
DWIDTH 8 0
BBX 8 16 0 -2
BITMAP
10
30
e0
9e
21
21
21
11
11
11
11
11
00
00
00
00
ENDCHAR
STARTCHAR a4d3
ENCODING 173
SWIDTH 903 0
DWIDTH 8 0
BBX 8 16 0 -2
BITMAP
10
30
e0
9e
21
21
21
21
21
20
20
20
00
00
00
00
ENDCHAR
STARTCHAR a4d4
ENCODING 174
SWIDTH 903 0
DWIDTH 8 0
BBX 8 16 0 -2
BITMAP
10
30
e0
9a
25
26
24
24
24
24
24
24
00
00
00
00
ENDCHAR
STARTCHAR a4d5
ENCODING 175
SWIDTH 903 0
DWIDTH 8 0
BBX 8 16 0 -2
BITMAP
10
30
e0
98
24
25
25
26
25
25
24
24
00
00
00
00
ENDCHAR
STARTCHAR a4d6
ENCODING 176
SWIDTH 903 0
DWIDTH 8 0
BBX 8 16 0 -2
BITMAP
00
e0
40
40
5c
22
22
22
02
02
1f
11
00
00
00
00
ENDCHAR
STARTCHAR a4d7
ENCODING 177
SWIDTH 903 0
DWIDTH 8 0
BBX 8 16 0 -2
BITMAP
00
e0
40
40
5c
22
22
22
06
0d
12
20
00
00
00
00
ENDCHAR
STARTCHAR a4d8
ENCODING 178
SWIDTH 903 0
DWIDTH 8 0
BBX 8 16 0 -2
BITMAP
10
30
e2
9a
26
25
25
24
24
24
24
24
00
00
00
00
ENDCHAR
STARTCHAR a4d9
ENCODING 179
SWIDTH 903 0
DWIDTH 8 0
BBX 8 16 0 -2
BITMAP
00
7c
92
92
92
92
92
92
92
92
92
7c
00
00
00
00
ENDCHAR
STARTCHAR a4da
ENCODING 180
SWIDTH 903 0
DWIDTH 8 0
BBX 8 16 0 -2
BITMAP
00
70
a8
a8
a8
a8
a8
a8
a8
af
a8
70
00
00
00
00
ENDCHAR
STARTCHAR a4db
ENCODING 181
SWIDTH 903 0
DWIDTH 8 0
BBX 8 16 0 -2
BITMAP
00
7c
92
92
92
7c
10
10
10
10
10
1e
00
00
00
00
ENDCHAR
STARTCHAR a4dc
ENCODING 182
SWIDTH 903 0
DWIDTH 8 0
BBX 8 16 0 -2
BITMAP
00
7c
92
92
92
7c
10
10
10
10
10
10
00
00
00
00
ENDCHAR
STARTCHAR a4dd
ENCODING 183
SWIDTH 903 0
DWIDTH 8 0
BBX 8 16 0 -2
BITMAP
00
7c
92
92
92
7c
10
10
10
1c
12
1c
00
00
00
00
ENDCHAR
STARTCHAR a4de
ENCODING 184
SWIDTH 903 0
DWIDTH 8 0
BBX 8 16 0 -2
BITMAP
00
70
a8
af
a8
a8
a8
a8
a8
a8
a8
70
00
00
00
00
ENDCHAR
STARTCHAR a4df
ENCODING 185
SWIDTH 903 0
DWIDTH 8 0
BBX 8 16 0 -2
BITMAP
00
7c
92
92
92
7c
10
20
40
80
80
80
00
00
00
00
ENDCHAR
STARTCHAR a4e0
ENCODING 186
SWIDTH 903 0
DWIDTH 8 0
BBX 8 16 0 -2
BITMAP
00
78
84
84
84
84
84
84
84
84
84
78
00
00
00
00
ENDCHAR
STARTCHAR a4e1
ENCODING 187
SWIDTH 903 0
DWIDTH 8 0
BBX 8 16 0 -2
BITMAP
00
78
84
84
84
84
87
84
84
84
84
78
00
00
00
00
ENDCHAR
STARTCHAR a4e2
ENCODING 188
SWIDTH 903 0
DWIDTH 8 0
BBX 8 16 0 -2
BITMAP
00
70
88
88
88
7c
04
08
10
10
10
1e
00
00
00
00
ENDCHAR
STARTCHAR a4e3
ENCODING 189
SWIDTH 903 0
DWIDTH 8 0
BBX 8 16 0 -2
BITMAP
00
70
88
88
88
7c
04
04
04
04
04
04
00
00
00
00
ENDCHAR
STARTCHAR a4e4
ENCODING 190
SWIDTH 903 0
DWIDTH 8 0
BBX 8 16 0 -2
BITMAP
00
70
88
88
88
7c
04
04
04
06
05
06
00
00
00
00
ENDCHAR
STARTCHAR a4e5
ENCODING 191
SWIDTH 903 0
DWIDTH 8 0
BBX 8 16 0 -2
BITMAP
00
30
30
78
84
84
84
84
84
84
84
78
00
00
00
00
ENDCHAR
STARTCHAR a4e6
ENCODING 192
SWIDTH 903 0
DWIDTH 8 0
BBX 8 16 0 -2
BITMAP
00
70
88
88
88
88
70
40
80
80
80
80
00
00
00
00
ENDCHAR
STARTCHAR a4e7
ENCODING 193
SWIDTH 903 0
DWIDTH 8 0
BBX 8 16 0 -2
BITMAP
00
84
84
84
84
fc
84
84
84
84
84
84
00
00
00
00
ENDCHAR
STARTCHAR a4e8
ENCODING 194
SWIDTH 903 0
DWIDTH 8 0
BBX 8 16 0 -2
BITMAP
00
88
88
88
88
f8
88
8f
88
88
88
88
00
00
00
00
ENDCHAR
STARTCHAR a4e9
ENCODING 195
SWIDTH 903 0
DWIDTH 8 0
BBX 8 16 0 -2
BITMAP
00
88
88
88
88
f8
88
88
88
88
88
8f
00
00
00
00
ENDCHAR
STARTCHAR a4ea
ENCODING 196
SWIDTH 903 0
DWIDTH 8 0
BBX 8 16 0 -2
BITMAP
00
84
84
84
fc
84
84
84
04
04
04
04
00
00
00
00
ENDCHAR
STARTCHAR a4eb
ENCODING 197
SWIDTH 903 0
DWIDTH 8 0
BBX 8 16 0 -2
BITMAP
00
88
88
88
f8
88
88
88
88
8e
89
8e
00
00
00
00
ENDCHAR
STARTCHAR a4ec
ENCODING 198
SWIDTH 903 0
DWIDTH 8 0
BBX 8 16 0 -2
BITMAP
00
02
e2
22
3e
22
22
22
22
22
22
22
00
00
00
00
ENDCHAR
STARTCHAR a4ed
ENCODING 199
SWIDTH 903 0
DWIDTH 8 0
BBX 8 16 0 -2
BITMAP
00
84
84
84
fc
84
84
84
80
80
80
80
00
00
00
00
ENDCHAR
STARTCHAR a4ee
ENCODING 200
SWIDTH 903 0
DWIDTH 8 0
BBX 8 16 0 -2
BITMAP
00
84
84
84
fc
84
84
84
04
04
1f
11
00
00
00
00
ENDCHAR
STARTCHAR a4ef
ENCODING 201
SWIDTH 903 0
DWIDTH 8 0
BBX 8 16 0 -2
BITMAP
00
c3
42
42
7e
42
42
42
42
42
42
42
00
00
00
00
ENDCHAR
STARTCHAR a4f0
ENCODING 202
SWIDTH 903 0
DWIDTH 8 0
BBX 8 16 0 -2
BITMAP
00
c6
44
44
7c
44
47
44
44
44
44
44
00
00
00
00
ENDCHAR
STARTCHAR a4f1
ENCODING 203
SWIDTH 903 0
DWIDTH 8 0
BBX 8 16 0 -2
BITMAP
00
c6
44
44
7c
44
44
44
44
44
44
47
00
00
00
00
ENDCHAR
STARTCHAR a4f2
ENCODING 204
SWIDTH 903 0
DWIDTH 8 0
BBX 8 16 0 -2
BITMAP
00
c3
42
42
7e
42
42
42
02
02
02
02
00
00
00
00
ENDCHAR
STARTCHAR a4f3
ENCODING 205
SWIDTH 903 0
DWIDTH 8 0
BBX 8 16 0 -2
BITMAP
00
c6
44
44
7c
44
44
44
44
46
45
46
00
00
00
00
ENDCHAR
STARTCHAR a4f4
ENCODING 206
SWIDTH 903 0
DWIDTH 8 0
BBX 8 16 0 -2
BITMAP
e0
43
e2
22
3e
22
22
22
22
22
22
22
00
00
00
00
ENDCHAR
STARTCHAR a4f5
ENCODING 207
SWIDTH 903 0
DWIDTH 8 0
BBX 8 16 0 -2
BITMAP
00
c3
42
42
7e
42
42
42
40
40
40
40
00
00
00
00
ENDCHAR
STARTCHAR a4f6
ENCODING 208
SWIDTH 903 0
DWIDTH 8 0
BBX 8 16 0 -2
BITMAP
00
c6
44
44
7c
44
44
44
04
04
1f
11
00
00
00
00
ENDCHAR
STARTCHAR a4f7
ENCODING 209
SWIDTH 903 0
DWIDTH 8 0
BBX 8 16 0 -2
BITMAP
00
30
48
84
84
44
28
10
10
10
10
10
00
00
00
00
ENDCHAR
STARTCHAR a4f8
ENCODING 210
SWIDTH 903 0
DWIDTH 8 0
BBX 8 16 0 -2
BITMAP
00
30
48
84
84
44
28
10
10
1e
10
10
00
00
00
00
ENDCHAR
STARTCHAR a4f9
ENCODING 211
SWIDTH 903 0
DWIDTH 8 0
BBX 8 16 0 -2
BITMAP
00
30
48
88
88
50
20
24
3c
22
22
20
00
00
00
00
ENDCHAR
STARTCHAR a4fa
ENCODING 212
SWIDTH 903 0
DWIDTH 8 0
BBX 8 16 0 -2
BITMAP
00
18
24
44
44
28
10
08
08
10
20
40
00
00
00
00
ENDCHAR
STARTCHAR a4fb
ENCODING 213
SWIDTH 903 0
DWIDTH 8 0
BBX 8 16 0 -2
BITMAP
00
30
48
88
88
50
20
3c
2a
24
20
20
00
00
00
00
ENDCHAR
STARTCHAR a4fc
ENCODING 214
SWIDTH 903 0
DWIDTH 8 0
BBX 8 16 0 -2
BITMAP
00
00
30
48
88
88
50
24
24
78
80
80
00
00
00
00
ENDCHAR
STARTCHAR a4fd
ENCODING 215
SWIDTH 903 0
DWIDTH 8 0
BBX 8 16 0 -2
BITMAP
00
30
48
8f
88
50
20
20
20
20
20
20
00
00
00
00
ENDCHAR
STARTCHAR a4fe
ENCODING 216
SWIDTH 903 0
DWIDTH 8 0
BBX 8 16 0 -2
BITMAP
fc
30
48
84
84
44
28
10
10
10
10
10
00
00
00
00
ENDCHAR
STARTCHAR a5a1
ENCODING 217
SWIDTH 903 0
DWIDTH 8 0
BBX 8 16 0 -2
BITMAP
00
70
88
88
88
50
20
10
3c
42
42
42
00
00
00
00
ENDCHAR
STARTCHAR a5a2
ENCODING 218
SWIDTH 903 0
DWIDTH 8 0
BBX 8 16 0 -2
BITMAP
00
60
90
90
a0
c0
40
7f
88
88
88
88
00
00
00
00
ENDCHAR
STARTCHAR a5a3
ENCODING 219
SWIDTH 903 0
DWIDTH 8 0
BBX 8 16 0 -2
BITMAP
00
60
90
90
a0
c0
40
70
88
88
88
8f
00
00
00
00
ENDCHAR
STARTCHAR a5a4
ENCODING 220
SWIDTH 903 0
DWIDTH 8 0
BBX 8 16 0 -2
BITMAP
00
70
88
88
88
50
20
10
7c
82
02
02
00
00
00
00
ENDCHAR
STARTCHAR a5a5
ENCODING 221
SWIDTH 903 0
DWIDTH 8 0
BBX 8 16 0 -2
BITMAP
00
60
90
90
a0
c0
40
70
88
8e
89
8e
00
00
00
00
ENDCHAR
STARTCHAR a5a6
ENCODING 222
SWIDTH 903 0
DWIDTH 8 0
BBX 8 16 0 -2
BITMAP
00
70
8f
88
88
50
20
10
3c
42
42
42
00
00
00
00
ENDCHAR
STARTCHAR a5a7
ENCODING 223
SWIDTH 903 0
DWIDTH 8 0
BBX 8 16 0 -2
BITMAP
00
70
88
88
88
50
20
10
7c
82
80
80
00
00
00
00
ENDCHAR
STARTCHAR a5a8
ENCODING 224
SWIDTH 903 0
DWIDTH 8 0
BBX 8 16 0 -2
BITMAP
00
70
88
88
88
50
20
10
78
84
1f
11
00
00
00
00
ENDCHAR
STARTCHAR a5a9
ENCODING 225
SWIDTH 903 0
DWIDTH 8 0
BBX 8 16 0 -2
BITMAP
00
70
88
f8
88
50
20
10
3c
42
42
42
00
00
00
00
ENDCHAR
STARTCHAR a5aa
ENCODING 226
SWIDTH 903 0
DWIDTH 8 0
BBX 8 16 0 -2
BITMAP
00
60
90
f0
a0
c0
40
7f
88
88
88
88
00
00
00
00
ENDCHAR
STARTCHAR a5ab
ENCODING 227
SWIDTH 903 0
DWIDTH 8 0
BBX 8 16 0 -2
BITMAP
00
60
90
f0
a0
c0
40
70
88
88
88
8f
00
00
00
00
ENDCHAR
STARTCHAR a5ac
ENCODING 228
SWIDTH 903 0
DWIDTH 8 0
BBX 8 16 0 -2
BITMAP
00
70
88
f8
88
50
20
10
7c
82
02
02
00
00
00
00
ENDCHAR
STARTCHAR a5ad
ENCODING 229
SWIDTH 903 0
DWIDTH 8 0
BBX 8 16 0 -2
BITMAP
00
60
90
f0
a0
c0
40
70
88
8e
89
8e
00
00
00
00
ENDCHAR
STARTCHAR a5ae
ENCODING 230
SWIDTH 903 0
DWIDTH 8 0
BBX 8 16 0 -2
BITMAP
00
70
8f
f8
88
50
20
10
3c
42
42
42
00
00
00
00
ENDCHAR
STARTCHAR a5af
ENCODING 231
SWIDTH 903 0
DWIDTH 8 0
BBX 8 16 0 -2
BITMAP
00
70
88
f8
88
50
20
10
7c
82
80
80
00
00
00
00
ENDCHAR
STARTCHAR a5b0
ENCODING 232
SWIDTH 903 0
DWIDTH 8 0
BBX 8 16 0 -2
BITMAP
00
70
88
f8
88
50
20
10
78
84
1f
11
00
00
00
00
ENDCHAR
STARTCHAR a5b1
ENCODING 233
SWIDTH 903 0
DWIDTH 8 0
BBX 8 16 0 -2
BITMAP
00
f8
20
70
88
88
50
20
10
3c
42
42
00
00
00
00
ENDCHAR
STARTCHAR a5b2
ENCODING 234
SWIDTH 903 0
DWIDTH 8 0
BBX 8 16 0 -2
BITMAP
00
f8
20
60
90
90
a0
40
7f
84
84
84
00
00
00
00
ENDCHAR
STARTCHAR a5b3
ENCODING 235
SWIDTH 903 0
DWIDTH 8 0
BBX 8 16 0 -2
BITMAP
00
f8
20
60
90
90
a0
40
78
84
84
87
00
00
00
00
ENDCHAR
STARTCHAR a5b4
ENCODING 236
SWIDTH 903 0
DWIDTH 8 0
BBX 8 16 0 -2
BITMAP
f8
20
70
88
88
50
20
10
7c
82
02
02
00
00
00
00
ENDCHAR
STARTCHAR a5b5
ENCODING 237
SWIDTH 903 0
DWIDTH 8 0
BBX 8 16 0 -2
BITMAP
00
f8
20
60
90
90
a0
40
78
86
85
86
00
00
00
00
ENDCHAR
STARTCHAR a5b6
ENCODING 238
SWIDTH 903 0
DWIDTH 8 0
BBX 8 16 0 -2
BITMAP
f8
20
70
8f
88
50
20
10
3c
42
42
42
00
00
00
00
ENDCHAR
STARTCHAR a5b7
ENCODING 239
SWIDTH 903 0
DWIDTH 8 0
BBX 8 16 0 -2
BITMAP
f8
20
70
88
88
50
20
10
7c
82
80
80
00
00
00
00
ENDCHAR
STARTCHAR a5b8
ENCODING 240
SWIDTH 903 0
DWIDTH 8 0
BBX 8 16 0 -2
BITMAP
f8
20
70
88
88
50
20
10
78
84
1f
11
00
00
00
00
ENDCHAR
STARTCHAR a5b9
ENCODING 241
SWIDTH 903 0
DWIDTH 8 0
BBX 8 16 0 -2
BITMAP
00
78
04
04
04
04
04
04
04
04
04
04
00
00
00
00
ENDCHAR
STARTCHAR a5ba
ENCODING 242
SWIDTH 903 0
DWIDTH 8 0
BBX 8 16 0 -2
BITMAP
00
f0
08
08
08
08
0f
08
08
08
08
08
00
00
00
00
ENDCHAR
STARTCHAR a5bb
ENCODING 243
SWIDTH 903 0
DWIDTH 8 0
BBX 8 16 0 -2
BITMAP
00
f0
08
08
08
08
08
08
08
08
08
0f
00
00
00
00
ENDCHAR
STARTCHAR a5bc
ENCODING 244
SWIDTH 903 0
DWIDTH 8 0
BBX 8 16 0 -2
BITMAP
00
f8
04
04
04
04
04
04
04
04
04
f8
00
00
00
00
ENDCHAR
STARTCHAR a5bd
ENCODING 245
SWIDTH 903 0
DWIDTH 8 0
BBX 8 16 0 -2
BITMAP
00
f0
08
08
08
08
08
08
08
0e
09
0e
00
00
00
00
ENDCHAR
STARTCHAR a5be
ENCODING 246
SWIDTH 903 0
DWIDTH 8 0
BBX 8 16 0 -2
BITMAP
00
f8
a4
44
04
04
04
04
04
04
04
04
00
00
00
00
ENDCHAR
STARTCHAR a5bf
ENCODING 247
SWIDTH 903 0
DWIDTH 8 0
BBX 8 16 0 -2
BITMAP
20
20
20
f8
04
04
04
04
04
04
04
04
00
00
00
00
ENDCHAR
STARTCHAR a5c0
ENCODING 248
SWIDTH 903 0
DWIDTH 8 0
BBX 8 16 0 -2
BITMAP
00
f0
08
08
08
0e
0d
0a
08
08
08
08
00
00
00
00
ENDCHAR
STARTCHAR a5c1
ENCODING 249
SWIDTH 903 0
DWIDTH 8 0
BBX 8 16 0 -2
BITMAP
00
f0
08
08
08
0a
0a
0c
0a
0a
08
08
00
00
00
00
ENDCHAR
STARTCHAR a5c2
ENCODING 250
SWIDTH 903 0
DWIDTH 8 0
BBX 8 16 0 -2
BITMAP
00
e0
90
10
38
24
04
04
04
04
04
04
00
00
00
00
ENDCHAR
STARTCHAR a5c3
ENCODING 251
SWIDTH 903 0
DWIDTH 8 0
BBX 8 16 0 -2
BITMAP
00
f0
08
08
08
0c
0a
0c
10
20
40
40
00
00
00
00
ENDCHAR
STARTCHAR a5c4
ENCODING 252
SWIDTH 903 0
DWIDTH 8 0
BBX 8 16 0 -2
BITMAP
00
f2
0a
0c
0a
0a
08
08
08
08
08
08
00
00
00
00
ENDCHAR
STARTCHAR a5c5
ENCODING 253
SWIDTH 903 0
DWIDTH 8 0
BBX 8 16 0 -2
BITMAP
7c
00
78
04
04
04
04
04
04
04
04
04
00
00
00
00
ENDCHAR
STARTCHAR Ge
ENCODING 254
SWIDTH 903 0
DWIDTH 8 0
BBX 8 16 0 -2
BITMAP
f8
00
f0
08
08
08
0f
08
08
08
08
08
00
00
00
00
ENDCHAR
STARTCHAR a5c7
ENCODING 255
SWIDTH 903 0
DWIDTH 8 0
BBX 8 16 0 -2
BITMAP
f8
00
f0
08
08
08
08
08
08
08
08
0f
00
00
00
00
ENDCHAR
STARTCHAR a5c8
ENCODING 256
SWIDTH 903 0
DWIDTH 8 0
BBX 8 16 0 -2
BITMAP
f8
00
f8
04
04
04
04
04
04
04
04
f8
00
00
00
00
ENDCHAR
STARTCHAR a5c9
ENCODING 257
SWIDTH 903 0
DWIDTH 8 0
BBX 8 16 0 -2
BITMAP
f8
00
f0
08
08
08
08
08
08
0e
09
0e
00
00
00
00
ENDCHAR
STARTCHAR a5ca
ENCODING 258
SWIDTH 903 0
DWIDTH 8 0
BBX 8 16 0 -2
BITMAP
f8
00
f8
a4
44
04
04
04
04
04
04
04
00
00
00
00
ENDCHAR
STARTCHAR a5cb
ENCODING 259
SWIDTH 903 0
DWIDTH 8 0
BBX 8 16 0 -2
BITMAP
f8
20
20
f8
04
04
04
04
04
04
04
04
00
00
00
00
ENDCHAR
STARTCHAR a5cc
ENCODING 260
SWIDTH 903 0
DWIDTH 8 0
BBX 8 16 0 -2
BITMAP
00
7c
92
92
92
92
92
92
92
92
92
92
00
00
00
00
ENDCHAR
STARTCHAR a5cd
ENCODING 261
SWIDTH 903 0
DWIDTH 8 0
BBX 8 16 0 -2
BITMAP
00
70
a8
a8
a8
a8
af
a8
a8
a8
a8
a8
00
00
00
00
ENDCHAR
STARTCHAR a5ce
ENCODING 262
SWIDTH 903 0
DWIDTH 8 0
BBX 8 16 0 -2
BITMAP
00
70
a8
a8
a8
a8
a8
a8
a8
a8
a8
af
00
00
00
00
ENDCHAR
STARTCHAR a5cf
ENCODING 263
SWIDTH 903 0
DWIDTH 8 0
BBX 8 16 0 -2
BITMAP
00
7c
92
92
92
92
92
02
02
02
02
02
00
00
00
00
ENDCHAR
STARTCHAR a5d0
ENCODING 264
SWIDTH 903 0
DWIDTH 8 0
BBX 8 16 0 -2
BITMAP
00
70
a8
a8
a8
a8
a8
a8
a8
ae
a9
ae
00
00
00
00
ENDCHAR
STARTCHAR a5d1
ENCODING 265
SWIDTH 903 0
DWIDTH 8 0
BBX 8 16 0 -2
BITMAP
00
7c
92
92
92
92
08
08
08
08
08
08
00
00
00
00
ENDCHAR
STARTCHAR a5d2
ENCODING 266
SWIDTH 903 0
DWIDTH 8 0
BBX 8 16 0 -2
BITMAP
00
7c
92
92
92
92
92
80
80
80
80
80
00
00
00
00
ENDCHAR
STARTCHAR a5d3
ENCODING 267
SWIDTH 903 0
DWIDTH 8 0
BBX 8 16 0 -2
BITMAP
00
70
a8
a8
a8
a8
a8
a8
08
08
3e
22
00
00
00
00
ENDCHAR
STARTCHAR a5d4
ENCODING 268
SWIDTH 903 0
DWIDTH 8 0
BBX 8 16 0 -2
BITMAP
00
7c
92
92
92
92
92
92
92
92
db
db
00
00
00
00
ENDCHAR
STARTCHAR a5d5
ENCODING 269
SWIDTH 903 0
DWIDTH 8 0
BBX 8 16 0 -2
BITMAP
00
7c
92
92
92
92
92
92
92
92
db
db
00
00
00
00
ENDCHAR
STARTCHAR a5d6
ENCODING 270
SWIDTH 903 0
DWIDTH 8 0
BBX 8 16 0 -2
BITMAP
00
7c
92
92
92
93
93
92
92
92
da
da
00
00
00
00
ENDCHAR
STARTCHAR a5d7
ENCODING 271
SWIDTH 903 0
DWIDTH 8 0
BBX 8 16 0 -2
BITMAP
00
7c
92
92
92
92
da
da
02
02
03
03
00
00
00
00
ENDCHAR
STARTCHAR a5d8
ENCODING 272
SWIDTH 903 0
DWIDTH 8 0
BBX 8 16 0 -2
BITMAP
00
7c
92
92
92
92
92
92
92
92
dd
da
00
00
00
00
ENDCHAR
STARTCHAR a5d9
ENCODING 273
SWIDTH 903 0
DWIDTH 8 0
BBX 8 16 0 -2
BITMAP
00
7c
92
92
92
d3
d3
08
08
08
0c
0c
00
00
00
00
ENDCHAR
STARTCHAR a5da
ENCODING 274
SWIDTH 903 0
DWIDTH 8 0
BBX 8 16 0 -2
BITMAP
00
7c
92
92
92
9b
9b
80
80
80
c0
c0
00
00
00
00
ENDCHAR
STARTCHAR a5db
ENCODING 275
SWIDTH 903 0
DWIDTH 8 0
BBX 8 16 0 -2
BITMAP
00
7c
92
92
92
92
da
da
02
02
1f
11
00
00
00
00
ENDCHAR
STARTCHAR a5dc
ENCODING 276
SWIDTH 903 0
DWIDTH 8 0
BBX 8 16 0 -2
BITMAP
00
10
10
38
44
44
28
10
28
44
44
44
00
00
00
00
ENDCHAR
STARTCHAR a5dd
ENCODING 277
SWIDTH 903 0
DWIDTH 8 0
BBX 8 16 0 -2
BITMAP
00
10
10
38
44
44
44
28
10
2f
44
44
00
00
00
00
ENDCHAR
STARTCHAR a5de
ENCODING 278
SWIDTH 903 0
DWIDTH 8 0
BBX 8 16 0 -2
BITMAP
00
20
20
70
88
88
88
50
20
50
88
8f
00
00
00
00
ENDCHAR
STARTCHAR a5df
ENCODING 279
SWIDTH 903 0
DWIDTH 8 0
BBX 8 16 0 -2
BITMAP
10
10
38
44
44
38
10
28
44
44
04
04
00
00
00
00
ENDCHAR
STARTCHAR a5e0
ENCODING 280
SWIDTH 903 0
DWIDTH 8 0
BBX 8 16 0 -2
BITMAP
00
10
10
38
44
44
44
28
10
2a
45
46
00
00
00
00
ENDCHAR
STARTCHAR a5e1
ENCODING 281
SWIDTH 903 0
DWIDTH 8 0
BBX 8 16 0 -2
BITMAP
20
20
70
8f
88
88
50
20
50
88
88
88
00
00
00
00
ENDCHAR
STARTCHAR a5e2
ENCODING 282
SWIDTH 903 0
DWIDTH 8 0
BBX 8 16 0 -2
BITMAP
10
10
38
44
44
44
28
10
28
44
40
40
00
00
00
00
ENDCHAR
STARTCHAR a5e3
ENCODING 283
SWIDTH 903 0
DWIDTH 8 0
BBX 8 16 0 -2
BITMAP
10
10
38
44
44
28
30
48
44
04
1f
11
00
00
00
00
ENDCHAR
STARTCHAR a5e4
ENCODING 284
SWIDTH 903 0
DWIDTH 8 0
BBX 8 16 0 -2
BITMAP
00
38
44
44
44
28
10
28
44
44
44
44
00
00
00
00
ENDCHAR
STARTCHAR a5e5
ENCODING 285
SWIDTH 903 0
DWIDTH 8 0
BBX 8 16 0 -2
BITMAP
00
38
44
44
44
28
10
28
47
44
44
44
00
00
00
00
ENDCHAR
STARTCHAR a5e6
ENCODING 286
SWIDTH 903 0
DWIDTH 8 0
BBX 8 16 0 -2
BITMAP
00
38
44
44
44
28
10
28
44
44
44
47
00
00
00
00
ENDCHAR
STARTCHAR a5e7
ENCODING 287
SWIDTH 903 0
DWIDTH 8 0
BBX 8 16 0 -2
BITMAP
00
38
44
44
44
28
10
28
44
04
04
04
00
00
00
00
ENDCHAR
STARTCHAR a5e8
ENCODING 288
SWIDTH 903 0
DWIDTH 8 0
BBX 8 16 0 -2
BITMAP
00
38
44
44
44
28
10
28
44
46
45
46
00
00
00
00
ENDCHAR
STARTCHAR a5e9
ENCODING 289
SWIDTH 903 0
DWIDTH 8 0
BBX 8 16 0 -2
BITMAP
00
70
8f
88
88
50
20
50
88
88
88
88
00
00
00
00
ENDCHAR
STARTCHAR a5ea
ENCODING 290
SWIDTH 903 0
DWIDTH 8 0
BBX 8 16 0 -2
BITMAP
00
38
44
44
44
28
10
28
44
44
40
40
00
00
00
00
ENDCHAR
STARTCHAR a5eb
ENCODING 291
SWIDTH 903 0
DWIDTH 8 0
BBX 8 16 0 -2
BITMAP
00
38
44
44
44
28
30
48
44
04
1f
11
00
00
00
00
ENDCHAR
STARTCHAR a5ec
ENCODING 292
SWIDTH 903 0
DWIDTH 8 0
BBX 8 16 0 -2
BITMAP
00
78
84
84
84
fc
84
84
84
84
84
78
00
00
00
00
ENDCHAR
STARTCHAR a5ed
ENCODING 293
SWIDTH 903 0
DWIDTH 8 0
BBX 8 16 0 -2
BITMAP
00
78
84
84
84
fc
84
87
84
84
84
78
00
00
00
00
ENDCHAR
STARTCHAR a5ee
ENCODING 294
SWIDTH 903 0
DWIDTH 8 0
BBX 8 16 0 -2
BITMAP
00
70
88
f8
88
7c
04
08
10
10
10
1e
00
00
00
00
ENDCHAR
STARTCHAR a5ef
ENCODING 295
SWIDTH 903 0
DWIDTH 8 0
BBX 8 16 0 -2
BITMAP
00
70
88
f8
88
7c
04
04
04
04
04
04
00
00
00
00
ENDCHAR
STARTCHAR a5f0
ENCODING 296
SWIDTH 903 0
DWIDTH 8 0
BBX 8 16 0 -2
BITMAP
00
70
88
f8
88
7c
04
04
04
06
05
06
00
00
00
00
ENDCHAR
STARTCHAR a5f1
ENCODING 297
SWIDTH 903 0
DWIDTH 8 0
BBX 8 16 0 -2
BITMAP
00
30
30
78
84
84
fc
84
84
84
84
78
00
00
00
00
ENDCHAR
STARTCHAR a5f2
ENCODING 298
SWIDTH 903 0
DWIDTH 8 0
BBX 8 16 0 -2
BITMAP
00
70
88
f8
88
88
70
40
80
80
80
80
00
00
00
00
ENDCHAR
STARTCHAR a5f3
ENCODING 299
SWIDTH 903 0
DWIDTH 8 0
BBX 8 16 0 -2
BITMAP
00
20
20
20
20
20
40
80
f0
88
88
7f
00
00
00
00
ENDCHAR
STARTCHAR a5f4
ENCODING 300
SWIDTH 903 0
DWIDTH 8 0
BBX 8 16 0 -2
BITMAP
00
40
40
40
40
80
f0
88
88
7f
08
10
20
00
00
00
ENDCHAR
STARTCHAR a5f5
ENCODING 301
SWIDTH 903 0
DWIDTH 8 0
BBX 8 16 0 -2
BITMAP
00
20
20
20
20
20
40
80
e4
92
92
7c
00
00
00
00
ENDCHAR
STARTCHAR a5f6
ENCODING 302
SWIDTH 903 0
DWIDTH 8 0
BBX 8 16 0 -2
BITMAP
00
40
40
40
40
80
f0
88
88
7f
08
08
00
00
00
00
ENDCHAR
STARTCHAR a5f7
ENCODING 303
SWIDTH 903 0
DWIDTH 8 0
BBX 8 16 0 -2
BITMAP
00
40
40
40
40
80
e0
90
90
7e
05
02
00
00
00
00
ENDCHAR
STARTCHAR a5f8
ENCODING 304
SWIDTH 903 0
DWIDTH 8 0
BBX 8 16 0 -2
BITMAP
00
7c
80
80
80
80
80
f0
88
7f
08
08
00
00
00
00
ENDCHAR
STARTCHAR a5f9
ENCODING 305
SWIDTH 903 0
DWIDTH 8 0
BBX 8 16 0 -2
BITMAP
00
7c
94
88
80
80
80
f0
88
7f
08
08
00
00
00
00
ENDCHAR
STARTCHAR a5fa
ENCODING 306
SWIDTH 903 0
DWIDTH 8 0
BBX 8 16 0 -2
BITMAP
00
40
40
40
80
f0
88
88
7f
08
3e
22
00
00
00
00
ENDCHAR
STARTCHAR a5fb
ENCODING 307
SWIDTH 903 0
DWIDTH 8 0
BBX 8 16 0 -2
BITMAP
00
fe
92
10
10
10
10
10
10
10
10
10
00
00
00
00
ENDCHAR
STARTCHAR a5fc
ENCODING 308
SWIDTH 903 0
DWIDTH 8 0
BBX 8 16 0 -2
BITMAP
00
fe
92
10
10
10
10
1e
10
10
10
10
00
00
00
00
ENDCHAR
STARTCHAR a5fd
ENCODING 309
SWIDTH 903 0
DWIDTH 8 0
BBX 8 16 0 -2
BITMAP
00
fe
92
10
10
10
10
10
10
10
10
1e
00
00
00
00
ENDCHAR
STARTCHAR a5fe
ENCODING 310
SWIDTH 903 0
DWIDTH 8 0
BBX 8 16 0 -2
BITMAP
00
fe
92
10
10
10
10
10
10
10
10
e0
00
00
00
00
ENDCHAR
STARTCHAR a6a1
ENCODING 311
SWIDTH 903 0
DWIDTH 8 0
BBX 8 16 0 -2
BITMAP
00
fe
92
10
10
10
10
10
10
1c
12
1c
00
00
00
00
ENDCHAR
STARTCHAR a6a2
ENCODING 312
SWIDTH 903 0
DWIDTH 8 0
BBX 8 16 0 -2
BITMAP
00
fe
92
10
18
08
08
08
08
08
08
08
00
00
00
00
ENDCHAR
STARTCHAR a6a3
ENCODING 313
SWIDTH 903 0
DWIDTH 8 0
BBX 8 16 0 -2
BITMAP
00
fe
92
10
10
20
20
40
40
80
80
80
00
00
00
00
ENDCHAR
STARTCHAR a6a4
ENCODING 314
SWIDTH 903 0
DWIDTH 8 0
BBX 8 16 0 -2
BITMAP
00
fe
92
10
10
10
10
10
10
10
7c
44
00
00
00
00
ENDCHAR
STARTCHAR a6a5
ENCODING 315
SWIDTH 903 0
DWIDTH 8 0
BBX 8 16 0 -2
BITMAP
7c
10
7e
a5
a5
a5
43
01
01
01
01
01
00
00
00
00
ENDCHAR
STARTCHAR a6a6
ENCODING 316
SWIDTH 903 0
DWIDTH 8 0
BBX 8 16 0 -2
BITMAP
00
88
f8
20
20
40
40
80
88
84
84
78
00
00
00
00
ENDCHAR
STARTCHAR a6a7
ENCODING 317
SWIDTH 903 0
DWIDTH 8 0
BBX 8 16 0 -2
BITMAP
00
88
f8
20
20
20
40
80
e4
92
92
7c
00
00
00
00
ENDCHAR
STARTCHAR a6a8
ENCODING 318
SWIDTH 903 0
DWIDTH 8 0
BBX 8 16 0 -2
BITMAP
00
00
00
00
00
00
00
00
00
00
00
00
00
00
00
00
ENDCHAR
STARTCHAR a6a9
ENCODING 319
SWIDTH 903 0
DWIDTH 8 0
BBX 8 16 0 -2
BITMAP
00
00
00
00
00
18
18
00
18
18
00
00
00
00
00
00
ENDCHAR
STARTCHAR a6aa
ENCODING 320
SWIDTH 903 0
DWIDTH 8 0
BBX 8 16 0 -2
BITMAP
00
00
00
00
00
6c
6c
00
6c
6c
00
00
00
00
00
00
ENDCHAR
STARTCHAR a6ab
ENCODING 321
SWIDTH 903 0
DWIDTH 8 0
BBX 8 16 0 -2
BITMAP
00
00
00
7e
00
18
00
18
00
00
00
00
00
00
00
00
ENDCHAR
STARTCHAR a6ac
ENCODING 322
SWIDTH 903 0
DWIDTH 8 0
BBX 8 16 0 -2
BITMAP
00
00
00
7e
00
18
00
18
00
7e
00
00
00
00
00
00
ENDCHAR
STARTCHAR a6ad
ENCODING 323
SWIDTH 903 0
DWIDTH 8 0
BBX 8 16 0 -2
BITMAP
00
00
00
18
18
00
7e
00
18
18
00
00
00
00
00
00
ENDCHAR
STARTCHAR a6ae
ENCODING 324
SWIDTH 903 0
DWIDTH 8 0
BBX 8 16 0 -2
BITMAP
00
00
00
18
18
00
0f
00
18
18
00
00
00
00
00
00
ENDCHAR
STARTCHAR a6af
ENCODING 325
SWIDTH 903 0
DWIDTH 8 0
BBX 8 16 0 -2
BITMAP
00
00
18
18
00
18
18
00
18
18
00
00
00
00
00
00
ENDCHAR
STARTCHAR a6b0
ENCODING 326
SWIDTH 903 0
DWIDTH 8 0
BBX 8 16 0 -2
BITMAP
00
18
18
c3
db
18
db
c3
18
18
00
00
00
00
00
00
ENDCHAR
STARTCHAR a6b1
ENCODING 327
SWIDTH 903 0
DWIDTH 8 0
BBX 8 16 0 -2
BITMAP
7c
00
00
30
30
70
6c
6c
6c
38
00
7c
00
00
00
00
ENDCHAR
STARTCHAR a6b2
ENCODING 328
SWIDTH 903 0
DWIDTH 8 0
BBX 8 16 0 -2
BITMAP
3e
00
3c
66
6e
7c
60
78
6c
38
00
3e
00
00
00
00
ENDCHAR
STARTCHAR a6b3
ENCODING 329
SWIDTH 903 0
DWIDTH 8 0
BBX 8 16 0 -2
BITMAP
7c
00
7c
64
60
60
60
60
60
60
00
7c
00
00
00
00
ENDCHAR
STARTCHAR a6b4
ENCODING 330
SWIDTH 903 0
DWIDTH 8 0
BBX 8 16 0 -2
BITMAP
7c
00
38
6c
6c
6c
6c
6c
6c
38
00
7c
00
00
00
00
ENDCHAR
STARTCHAR a6b5
ENCODING 331
SWIDTH 903 0
DWIDTH 8 0
BBX 8 16 0 -2
BITMAP
7e
00
18
18
18
3e
62
60
60
3e
00
7e
00
00
00
00
ENDCHAR
STARTCHAR a6b6
ENCODING 332
SWIDTH 903 0
DWIDTH 8 0
BBX 8 16 0 -2
BITMAP
fe
00
f8
98
18
18
18
18
18
1e
00
fe
00
00
00
00
ENDCHAR
STARTCHAR a6b7
ENCODING 333
SWIDTH 903 0
DWIDTH 8 0
BBX 8 16 0 -2
BITMAP
fe
00
f8
98
18
18
18
1c
1a
1c
00
fe
00
00
00
00
ENDCHAR
STARTCHAR a6b8
ENCODING 334
SWIDTH 903 0
DWIDTH 8 0
BBX 8 16 0 -2
BITMAP
7e
00
7e
18
18
18
18
18
18
7e
00
7e
00
00
00
00
ENDCHAR
STARTCHAR a6b9
ENCODING 335
SWIDTH 903 0
DWIDTH 8 0
BBX 8 16 0 -2
BITMAP
7e
00
66
66
7e
66
66
66
66
3c
00
7e
00
00
00
00
ENDCHAR
STARTCHAR a6ba
ENCODING 336
SWIDTH 903 0
DWIDTH 8 0
BBX 8 16 0 -2
BITMAP
7e
00
18
18
18
18
18
18
18
18
00
7e
00
00
00
00
ENDCHAR
STARTCHAR a6bb
ENCODING 337
SWIDTH 903 0
DWIDTH 8 0
BBX 8 16 0 -2
BITMAP
7e
00
7e
18
18
30
6c
66
66
66
00
7e
00
00
00
00
ENDCHAR
STARTCHAR a6bc
ENCODING 338
SWIDTH 903 0
DWIDTH 8 0
BBX 8 16 0 -2
BITMAP
ff
00
00
4e
db
db
db
db
db
72
00
ff
00
00
00
00
ENDCHAR
STARTCHAR a6bd
ENCODING 339
SWIDTH 903 0
DWIDTH 8 0
BBX 8 16 0 -2
BITMAP
ff
00
db
db
df
db
73
03
03
03
00
ff
00
00
00
00
ENDCHAR
STARTCHAR a6be
ENCODING 340
SWIDTH 903 0
DWIDTH 8 0
BBX 8 16 0 -2
BITMAP
ff
00
66
66
66
66
3e
06
06
06
00
ff
00
00
00
00
ENDCHAR
STARTCHAR a6bf
ENCODING 341
SWIDTH 903 0
DWIDTH 8 0
BBX 8 16 0 -2
BITMAP
ff
00
7e
18
18
0c
0c
0c
0c
3f
00
ff
00
00
00
00
ENDCHAR
STARTCHAR a6c0
ENCODING 342
SWIDTH 903 0
DWIDTH 8 0
BBX 8 16 0 -2
BITMAP
ff
00
3e
65
62
60
60
60
60
3e
00
ff
00
00
00
00
ENDCHAR
STARTCHAR a6c1
ENCODING 343
SWIDTH 903 0
DWIDTH 8 0
BBX 8 16 0 -2
BITMAP
ff
00
ff
24
24
24
24
24
24
24
00
ff
00
00
00
00
ENDCHAR
STARTCHAR a6c2
ENCODING 344
SWIDTH 903 0
DWIDTH 8 0
BBX 8 16 0 -2
BITMAP
ff
00
78
0c
0c
1c
06
06
06
06
00
ff
00
00
00
00
ENDCHAR
STARTCHAR a6c3
ENCODING 345
SWIDTH 903 0
DWIDTH 8 0
BBX 8 16 0 -2
BITMAP
ff
00
3c
66
66
2c
30
30
30
30
00
ff
00
00
00
00
ENDCHAR
STARTCHAR a6c4
ENCODING 346
SWIDTH 903 0
DWIDTH 8 0
BBX 8 16 0 -2
BITMAP
ff
00
66
99
99
aa
cc
cc
cc
cc
00
ff
00
00
00
00
ENDCHAR
STARTCHAR a6c5
ENCODING 347
SWIDTH 903 0
DWIDTH 8 0
BBX 8 16 0 -2
BITMAP
00
00
00
18
99
42
24
db
db
24
42
99
18
00
00
00
ENDCHAR
STARTCHAR a6c6
ENCODING 348
SWIDTH 903 0
DWIDTH 8 0
BBX 8 16 0 -2
BITMAP
00
00
18
18
00
18
18
18
3c
3c
3c
18
00
00
00
00
ENDCHAR
STARTCHAR a6c7
ENCODING 349
SWIDTH 903 0
DWIDTH 8 0
BBX 8 16 0 -2
BITMAP
00
00
00
00
00
00
00
00
00
18
18
00
00
00
00
00
ENDCHAR
STARTCHAR a6c8
ENCODING 350
SWIDTH 903 0
DWIDTH 8 0
BBX 8 16 0 -2
BITMAP
00
00
00
00
1b
36
6c
d8
6c
36
1b
00
00
00
00
00
ENDCHAR
STARTCHAR a6c9
ENCODING 351
SWIDTH 903 0
DWIDTH 8 0
BBX 8 16 0 -2
BITMAP
00
00
00
00
d8
6c
36
1b
36
6c
d8
00
00
00
00
00
ENDCHAR
STARTCHAR a6ca
ENCODING 352
SWIDTH 903 0
DWIDTH 8 0
BBX 8 16 0 -2
BITMAP
00
00
3e
63
63
06
0c
18
18
00
18
18
00
00
00
00
ENDCHAR
ENDFONT
